<svg width="56" height="55" viewBox="0 0 56 55" fill="none" xmlns="http://www.w3.org/2000/svg">
<rect x="0.748535" y="0.60614" width="54.347" height="53.7101" rx="26.8551" fill="#0A1930"/>
<path d="M29.9856 38.0689C28.1752 38.0689 26.8284 37.5998 25.9453 36.6615C25.0842 35.7233 24.6537 34.4468 24.6537 32.8321V25.6316H22.4348V22.2277H24.6537V18.8893L29.1246 17.5801V22.2277H33.0987L32.8338 25.6316H29.1246V32.5376C29.1246 33.3885 29.3233 33.9777 29.7207 34.305C30.1181 34.6105 30.7363 34.7632 31.5753 34.7632C32.1935 34.7632 32.8338 34.6541 33.4961 34.4359V37.4797C33.0104 37.6761 32.4805 37.818 31.9065 37.9052C31.3324 38.0143 30.6922 38.0689 29.9856 38.0689Z" fill="url(#paint0_linear)"/>
<defs>
<linearGradient id="paint0_linear" x1="27.9655" y1="17.5801" x2="27.9655" y2="38.1036" gradientUnits="userSpaceOnUse">
<stop stop-color="white"/>
<stop offset="1" stop-color="#00FFF0"/>
</linearGradient>
</defs>
</svg>
